<svg xmlns="http://www.w3.org/2000/svg" viewBox="0 0 1000 1000"><path d="M380.43 13.53c-12.87 7.97-44.55 47.41-53.54 66.82-11.03 24.11-6.54 42.91 18.19 73.77l12.06 15.33-12.06 13.08c-22.89 24.93-28.61 42.3-20.84 62.94 8.38 22.48 43.32 67.64 58.44 75.81 18.39 9.81 39.03-11.44 29.02-30.04-1.23-2.45-6.95-9.6-12.46-15.74-11.85-13.08-34.12-42.3-34.12-45.16 0-2.66 27.59-31.26 35.55-36.78 8.99-6.13 13.49-13.89 13.49-23.09 0-6.54-2.04-9.81-15.73-24.11-21.05-22.68-33.51-39.64-31.88-44.14 2.66-7.15 17.78-27.79 30.04-40.87 15.12-15.94 17.57-20.23 17.57-29.43 0-8.17-4.29-14.92-12.26-19-7.78-4.09-14.11-3.88-21.47.61zM513.05 13.74c-6.95 4.29-31.26 31.06-41.07 45.16-20.02 29.22-22.89 46.39-11.44 69.48 3.68 7.36 11.65 19.62 17.98 27.18l11.44 13.9-12.46 13.49c-6.74 7.36-15.12 19.41-18.8 26.56-5.31 11.03-6.13 14.3-5.11 22.89 2.04 17.37 16.35 41.48 42.09 71.11 16.55 19 23.91 22.88 36.17 19 17.37-5.72 20.02-28.4 4.9-41.89-6.13-5.52-26.56-30.65-33.51-41.28-4.5-6.54-5.11-9.2-3.47-12.26 1.02-2.25 12.26-13.69 24.93-25.75l22.88-21.66-1.02-9.2c-1.02-8.17-3.06-11.24-18.59-27.99-16.14-16.96-30.04-34.94-30.04-38.82 0-3.47 17.37-26.77 31.47-42.5 8.58-9.4 16.14-19.41 16.96-22.27 2.25-8.79-1.84-19.21-9.4-24.32-8.38-5.74-15.54-5.94-23.91-.83zM657.92 13.33c-12.87 7.15-45.16 47-54.97 67.63-10.83 22.89-5.52 43.32 19.41 74.58 9.81 12.26 11.85 16.14 9.4 16.96-4.7 1.84-25.13 27.18-30.04 37.39-5.92 12.26-5.52 26.77 1.02 41.07 11.44 25.54 49.04 69.88 60.89 72.34 7.77 1.43 18.6-2.86 23.09-9.2 1.84-2.66 3.27-8.58 3.27-13.28 0-7.76-1.43-10.42-14.51-25.54-20.23-23.5-32.49-40.46-32.49-45.16 0-3.88 18.19-23.29 37.39-39.64 8.99-7.56 9.6-8.99 9.6-17.78 0-8.99-.82-10.42-18.39-30.04-23.3-25.95-29.43-35.15-27.79-41.48 1.43-5.93 16.75-26.36 33.72-44.96 11.44-12.46 12.46-14.51 12.46-22.89.02-17.55-17.14-28.38-32.06-20zM71.06 374.8c-10.63 8.79-10.42 25.13.2 34.94 3.47 3.27 8.99 3.88 40.25 4.7l35.96 1.02 1.43 15.33c5.31 54.56 26.97 113.41 59.87 162.45 16.96 25.34 33.72 44.75 58.85 67.63l17.17 15.73-6.54 17.57c-3.68 9.6-15.53 43.93-26.56 76.42l-19.82 58.65h-28.61c-33.1 0-40.66 2.04-45.77 12.87-4.7 9.81-2.45 20.02 5.52 26.77 5.93 4.9 7.56 5.31 28.2 5.31 12.06 0 22.48.61 23.29 1.22.61.61-5.72 21.46-14.3 46.18-14.71 42.5-15.33 45.16-13.08 52.92 3.06 10.01 10.42 15.12 22.07 15.12 14.51 0 16.76-3.88 36.78-62.32l17.98-52.11h490l19 52.72c10.42 29.02 20.03 53.95 21.25 55.58 3.68 4.29 15.53 7.56 22.48 6.13 8.58-1.84 16.35-11.85 16.35-21.05 0-4.09-6.95-26.36-15.12-49.45-8.38-23.09-14.71-42.5-14.1-43.52.41-.82 6.74-1.43 13.89-1.43 11.04 0 13.89-.82 19.21-5.31 7.36-6.13 10.01-16.55 6.33-25.54-4.5-10.63-10.63-12.88-35.56-14.1l-22.48-1.02-26.97-75.2-26.97-75.2 29.02-29.01c34.74-34.74 51.49-57.62 70.5-96.45 20.64-41.89 32.9-83.17 36.17-122.19l1.43-15.73h25.75c21.66 0 26.77-.61 32.08-3.88 12.88-7.77 14.3-26.16 2.66-35.76l-6.33-5.31H77.4l-6.34 5.32zm477.75 57.01c3.27 1.63 7.76 6.95 10.22 11.85 3.68 7.56 3.88 10.01 2.04 15.33-1.63 4.7-27.59 29.43-92.97 88.28-49.86 44.95-93.18 82.35-95.83 82.96-7.56 1.84-15.12-.61-21.66-7.36-8.38-8.38-8.38-21.66 0-31.26 10.83-12.06 173.69-157.75 179.41-160.2 7.55-3.27 12.04-3.27 18.79.4zm33.91 90.12c1.63.82 4.7 4.09 6.34 7.36 2.66 4.9 2.66 7.15.82 11.65-3.07 6.33-116.48 108.7-123.83 111.56-11.65 4.29-23.29-10.01-16.96-21.05 2.66-4.7 57.42-55.58 105.64-97.68 14.51-12.66 19.82-14.91 27.99-11.84zM350.8 716.25c101.56 49.86 216.6 49.45 317.54-1.23 14.71-7.36 24.32-11.03 24.72-9.61.61 1.23 10.63 29.22 22.48 62.32s21.25 60.49 20.84 60.89-103.19.41-228.66.2l-227.63-.61 21.46-62.94c11.85-34.53 22.07-62.53 22.68-62.12.62.43 12.47 6.16 26.57 13.1z"/></svg>