<svg xmlns="http://www.w3.org/2000/svg" xmlns:xlink="http://www.w3.org/1999/xlink" version="1.1" x="0px" y="0px" viewBox="0 0 80 80" enable-background="new 0 0 80 80" xml:space="preserve"><g><path fill-rule="evenodd" clip-rule="evenodd" fill="#000000" d="M72.387,56.626L45.246,11.934h-9.655h-0.008l21.295,35.527   c0.141,0.235,0.145,0.528,0.01,0.768c-0.136,0.239-0.39,0.388-0.663,0.388H35.467l-4.699,8.01H72.387z"/><path fill-rule="evenodd" clip-rule="evenodd" fill="#000000" d="M72.5,58.151H62.303h-11.44H29.437h0   c-0.273,0-0.525-0.146-0.66-0.384c-0.134-0.232-0.133-0.518-0.003-0.75l-0.001-0.003l9.72-17.276l-4.232-6.799l-2.496,4.305   L13.899,68.066h53.578L72.5,58.151z"/><path fill-rule="evenodd" clip-rule="evenodd" fill="#000000" d="M7.5,57.415l5.112,9.83l20.964-36.17   c0.133-0.229,0.377-0.374,0.643-0.38c0.27-0.029,0.515,0.128,0.659,0.351l0.005,0.009h0.001l0.013,0.022l10.268,16.014h9.712   l-20.64-34.435L7.5,57.415z"/></g></svg>