<svg xmlns="http://www.w3.org/2000/svg" viewBox="0 0 297 297"><path d="M88.611 179.339c5.57 4.153 11.347 8.464 17.238 12.877 2.32-2.943 4.646-5.92 6.971-8.914-2.691-19.357-5.73-38.676-8.487-56.199-1.857-11.811-3.562-22.644-4.949-32.168-4.258-5.331-7.759-9.447-10.346-12.035-13.654-13.656-33.824-26.515-51.382-32.761a3.061 3.061 0 0 0-3.186.72L2.681 82.653a3.075 3.075 0 0 0-.719 3.187c6.251 17.565 19.107 37.736 32.757 51.386 7.531 7.534 27.951 22.766 53.804 42.047l.088.066zM167.186 265.873l-4.936-1.73.167-5.229c1.254-39.311 9.519-91.833 16.161-134.036 4.655-29.585 8.333-52.954 8.333-63.628 0-19.301-5.171-42.658-13.173-59.505A3.073 3.073 0 0 0 170.977 0h-44.955a3.07 3.07 0 0 0-2.76 1.744C115.26 18.585 110.09 41.942 110.09 61.25c0 10.669 3.676 34.032 8.329 63.61 6.645 42.232 14.909 94.762 16.161 134.055l.168 5.227-4.935 1.73c-1.017.357-2.044 1.388-2.044 2.888v22.325a3.06 3.06 0 0 0 3.057 3.057h35.348a3.06 3.06 0 0 0 3.057-3.057V268.76c-.001-1.5-1.028-2.531-2.045-2.887zM232.094 250.992a3.093 3.093 0 0 0-3.485-.594l-4.708 2.263-3.577-3.808c-9.875-10.512-20.65-23.22-31.686-36.906a2612.95 2612.95 0 0 0-8.883 6.73c-1.096 10.143-1.978 19.983-2.541 29.241 8.534 7.146 16.469 14.086 23.427 20.624l3.809 3.579-2.267 4.71c-.468.971-.465 2.427.596 3.487l15.777 15.786a3.042 3.042 0 0 0 2.162.896c.817 0 1.584-.317 2.16-.895l25.003-25.006a3.078 3.078 0 0 0 .895-2.162c0-.804-.326-1.591-.895-2.159l-15.787-15.786zM294.319 82.653L262.53 50.857a3.09 3.09 0 0 0-3.191-.718c-17.555 6.244-37.723 19.105-51.375 32.76-2.588 2.587-6.088 6.704-10.346 12.034-1.389 9.524-3.092 20.355-4.949 32.161-3.505 22.278-7.467 47.457-10.59 71.934a7020.887 7020.887 0 0 1 26.369-19.733c25.87-19.295 46.302-34.533 53.835-42.068 13.648-13.652 26.505-33.824 32.755-51.388a3.07 3.07 0 0 0-.719-3.186zM76.677 248.852l-3.576 3.806-4.707-2.26a3.084 3.084 0 0 0-1.325-.302c-.805 0-1.593.326-2.162.895L49.12 266.774a3.034 3.034 0 0 0-.896 2.161c0 .817.317 1.584.894 2.16l25.004 25.008c1.153 1.156 3.17 1.155 4.321.001l15.784-15.788c1.06-1.061 1.063-2.517.595-3.488l-2.269-4.712 3.81-3.579c6.956-6.538 14.891-13.478 23.423-20.621-.849-13.935-2.415-29.192-4.354-44.82-13.485 17.036-26.785 33.013-38.755 45.756z"/></svg>