<svg xmlns:dc="http://purl.org/dc/elements/1.1/" xmlns:cc="http://creativecommons.org/ns#" xmlns:rdf="http://www.w3.org/1999/02/22-rdf-syntax-ns#" xmlns:svg="http://www.w3.org/2000/svg" xmlns="http://www.w3.org/2000/svg" xmlns:sodipodi="http://sodipodi.sourceforge.net/DTD/sodipodi-0.dtd" xmlns:inkscape="http://www.inkscape.org/namespaces/inkscape" viewBox="0 0 100 100" version="1.1" x="0px" y="0px"><g style="display:inline;opacity:1"><path style="color:#000000;font-style:normal;font-variant:normal;font-weight:normal;font-stretch:normal;font-size:medium;line-height:normal;font-family:sans-serif;text-indent:0;text-align:start;text-decoration:none;text-decoration-line:none;text-decoration-style:solid;text-decoration-color:#000000;letter-spacing:normal;word-spacing:normal;text-transform:none;direction:ltr;block-progression:tb;writing-mode:lr-tb;baseline-shift:baseline;text-anchor:start;white-space:normal;clip-rule:nonzero;display:inline;overflow:visible;visibility:visible;opacity:1;isolation:auto;mix-blend-mode:normal;color-interpolation:sRGB;color-interpolation-filters:linearRGB;solid-color:#000000;solid-opacity:1;fill:#000000;fill-opacity:1;fill-rule:nonzero;stroke:none;stroke-width:10;stroke-linecap:round;stroke-linejoin:round;stroke-miterlimit:4;stroke-dasharray:none;stroke-dashoffset:0;stroke-opacity:1;color-rendering:auto;image-rendering:auto;shape-rendering:auto;text-rendering:auto;enable-background:accumulate" d="m 37.125837,6.5856585 c -15.236399,0 -27.6953126,12.4589135 -27.6953126,27.6953125 0,15.236398 12.4589136,27.695313 27.6953126,27.695313 7.601897,0 14.510678,-3.103117 19.527343,-8.103516 -2.585478,-3.79495 -5.100442,-5.358956 -7.601562,-6.511719 -3.134343,2.863706 -7.30433,4.615235 -11.925781,4.615235 -9.831998,0 -17.695313,-7.863316 -17.695313,-17.695313 0,-9.831998 7.863315,-17.695312 17.695313,-17.695312 5.635155,0 10.613762,2.592134 13.845703,6.648437 3.674118,-1.5182 7.110677,-2.47211 10.208984,-2.623047 C 56.399738,12.252847 47.397344,6.5856585 37.125837,6.5856585 Z m 26.18164,15.0253905 c -15.236398,0 -27.695312,12.458914 -27.695312,27.695313 0,0.553068 0.02232,1.101204 0.05469,1.646484 4.704163,0.225906 7.473557,-0.937493 9.978516,-2.292969 0.338861,-9.525117 8.048596,-17.048828 17.662109,-17.048828 9.831998,0 17.695313,7.863315 17.695313,17.695313 0,9.831997 -7.863315,17.693359 -17.695313,17.693359 -5.650709,0 -10.641917,-2.602637 -13.873047,-6.677734 -3.548264,1.432301 -7.115588,2.474131 -10.164062,2.6875 4.785332,8.340557 13.778354,13.990234 24.037109,13.990234 15.236399,0 27.695313,-12.456961 27.695313,-27.693359 0,-15.236399 -12.458914,-27.695313 -27.695313,-27.695313 z m -0.21875,11.033203 c -3.726964,0.07059 -6.134479,1.072441 -8.298828,2.246094 -0.02287,0.682908 -0.09282,1.351328 -0.189453,2.011719 3.239126,1.479046 6.610137,3.832529 8.804687,6.080078 0.913737,-2.740176 1.416016,-5.663467 1.416016,-8.701172 0,-0.53987 -0.01993,-1.074957 -0.05078,-1.607422 -0.589394,-0.03012 -1.149217,-0.03938 -1.681641,-0.0293 z m -25.011718,2.984375 c -5.80853,0.96382 -11.022506,3.742862 -15.025391,7.740235 2.587897,3.793516 5.101401,5.360765 7.599609,6.509765 1.111532,-1.015917 2.35964,-1.883181 3.705078,-2.591796 0.404532,-4.548297 1.999963,-9.181447 3.720704,-11.658204 z m 13.947265,1.283204 c -3.298562,3.390346 -4.345789,6.210057 -4.957031,8.919921 7.638283,1.963309 13.228516,8.829484 13.228516,17.113282 0,0.841577 -0.07793,1.661696 -0.189454,2.470703 2.713668,0.590078 5.697087,0.846684 10.125,-0.683594 0.03815,-0.591552 0.06445,-1.186321 0.06445,-1.787109 0,-11.930948 -7.641016,-22.15698 -18.271485,-26.033203 z M 16.311383,54.271205 c -0.907548,2.731798 -1.406247,5.646876 -1.40625,8.673829 0,15.236398 12.458915,27.693359 27.695313,27.693359 9.754257,0 18.363464,-5.109525 23.300781,-12.78125 -2.861196,0.554475 -7.628451,0.105337 -11.904297,-1.345703 -3.07116,2.576204 -7.038311,4.126953 -11.396484,4.126953 -9.831997,0 -17.695313,-7.861362 -17.695313,-17.693359 0,-0.88668 0.08345,-1.75123 0.207032,-2.601563 -3.242629,-1.480571 -6.612984,-3.830708 -8.800782,-6.072266 z"/></g></svg>