<svg xmlns="http://www.w3.org/2000/svg" xmlns:xlink="http://www.w3.org/1999/xlink" version="1.1" x="0px" y="0px" viewBox="0 0 100 100" enable-background="new 0 0 100 100" xml:space="preserve"><g><polygon fill-rule="evenodd" clip-rule="evenodd" points="2.843,83.561 97.156,83.561 97.156,54.58 97.156,54.199 97.156,54.184    2.843,54.184  "/><rect x="49.555" y="25.205" fill-rule="evenodd" clip-rule="evenodd" width="47.602" height="25.995"/><path fill-rule="evenodd" clip-rule="evenodd" d="M90.68,19.381c0-1.619-1.324-2.941-2.941-2.941h-5.35   c-1.617,0-2.941,1.322-2.941,2.941v2.709H90.68V19.381z"/><path fill-rule="evenodd" clip-rule="evenodd" d="M67.613,19.381c0-1.619-1.322-2.941-2.941-2.941h-5.35   c-1.617,0-2.941,1.322-2.941,2.941v2.709h11.232V19.381z"/><path fill-rule="evenodd" clip-rule="evenodd" d="M42.087,48.602c0-1.617-1.323-2.941-2.941-2.941h-5.35   c-1.618,0-2.941,1.324-2.941,2.941v2.597h11.232V48.602z"/><path fill-rule="evenodd" clip-rule="evenodd" d="M19.021,48.602c0-1.617-1.324-2.941-2.941-2.941h-5.35   c-1.618,0-2.941,1.324-2.941,2.941v2.597h11.232V48.602z"/></g></svg>