<svg xmlns="http://www.w3.org/2000/svg" xmlns:xlink="http://www.w3.org/1999/xlink" version="1.1" x="0px" y="0px" viewBox="0 0 512 512" enable-background="new 0 0 512 512" xml:space="preserve"><path d="M158.6,212.5c16.7,0,30.2-13.5,30.2-30.2c0-16.7-13.5-30.2-30.2-30.2c-16.7,0-30.2,13.5-30.2,30.2  C128.4,198.9,141.9,212.5,158.6,212.5z M395.5,216l-45.8-52.9l-62.2,85.4l-36.7-23.8c0,0-50.8,12-67.5,30.4c-26.7-9.2-41.2,0-41.2,0  L106,282.7h289.5V216z M458,100.7H272.1V89c0-9.4-7.7-17.1-17.1-17.1c-9.4,0-17.1,7.7-17.1,17.1v11.7H52c-9.4,0-17.1,7.7-17.1,17.1  s7.7,17.1,17.1,17.1h17.1v191.8h145.7L102.9,393c-8.1,4.8-10.8,15.3-6,23.4c4.8,8.1,15.3,10.8,23.4,6l117.5-69.6v60.9  c0,9.4,7.7,17.1,17.1,17.1c9.4,0,17.1-7.7,17.1-17.1v-60.9l117.5,69.6c8.1,4.8,18.6,2.1,23.4-6c4.8-8.1,2.1-18.6-6-23.4l-111.8-66.2  h145.7V134.9H458c9.4,0,17.1-7.7,17.1-17.1S467.4,100.7,458,100.7z M416.1,302H93.9v-167h322.2V302z"/><text x="0" y="527" fill="#ffffff" font-size="5px" font-weight="bold" font-family="'Helvetica Neue', Helvetica, Arial-Unicode, Arial, Sans-serif">Created by Loudoun Design Co.</text><text x="0" y="532" fill="#ffffff" font-size="5px" font-weight="bold" font-family="'Helvetica Neue', Helvetica, Arial-Unicode, Arial, Sans-serif">from the Noun Project</text></svg>