<svg xmlns="http://www.w3.org/2000/svg" xmlns:xlink="http://www.w3.org/1999/xlink" version="1.1" x="0px" y="0px" viewBox="0 0 32 40" enable-background="new 0 0 32 32" xml:space="preserve"><g><g><circle cx="13" cy="15.5" r="1"/><circle cx="19" cy="15.5" r="1"/><path d="M19.6464844,19.1464844C18.7861328,20.0068359,17.4570312,20.5,16,20.5s-2.7861328-0.4931641-3.6464844-1.3535156    c-0.1953125-0.1953125-0.5117188-0.1953125-0.7070312,0s-0.1953125,0.5117188,0,0.7070312    C12.6923828,20.8999023,14.2792969,21.5,16,21.5s3.3076172-0.6000977,4.3535156-1.6464844    c0.1953125-0.1953125,0.1953125-0.5117188,0-0.7070312S19.8417969,18.9511719,19.6464844,19.1464844z"/><path d="M22,6.5h-1V4.2999878C21,3.8581543,20.6268921,3.5,20.166687,3.5h-8.333374C11.3731079,3.5,11,3.8581543,11,4.2999878V6.5    h-1c-2.7614136,0-5,2.2385864-5,5v10c0,2.7614136,2.2385864,5,5,5v2h12v-2c2.7614136,0,5-2.2385864,5-5v-10    C27,8.7385864,24.7614136,6.5,22,6.5z M12,4.5h8v2h-8V4.5z M21,27.5H11v-1h10V27.5z M26,21.5c0,2.2056274-1.7943726,4-4,4H10    c-2.2056274,0-4-1.7943726-4-4v-10c0-2.2056274,1.7943726-4,4-4h1h10h1c2.2056274,0,4,1.7943726,4,4V21.5z"/></g></g><g display="none"><g display="inline"><g><path fill="#000000" d="M21,28v1H11v-1H21 M22,27H10v3h12V27L22,27z"/></g><g><path fill="#000000" d="M20,6v2h-8V6H20 M20.1666698,5h-8.3333397C11.3731003,5,11,5.35817,11,5.8000002V9h10V5.8000002     C21,5.35817,20.6268997,5,20.1666698,5L20.1666698,5z"/></g><circle fill="#000000" cx="13" cy="17" r="1"/><circle fill="#000000" cx="19" cy="17" r="1"/><path fill="#000000" stroke="#FF0000" stroke-linecap="round" stroke-miterlimit="10" d="M20,21c-1,1-2.5,1.5-4,1.5S13,22,12,21"/><g><path fill="#000000" d="M22,9c2.2056103,0,4,1.7943897,4,4v10c0,2.2056103-1.7943897,4-4,4H10c-2.2056098,0-4-1.7943897-4-4V13     c0-2.2056103,1.7943902-4,4-4H22 M22,8H10c-2.7614198,0-5,2.2385798-5,5v10c0,2.7614193,2.2385802,5,5,5h12     c2.7614193,0,5-2.2385807,5-5V13C27,10.2385798,24.7614193,8,22,8L22,8z"/></g></g></g><text x="0" y="47" fill="#000000" font-size="5px" font-weight="bold" font-family="'Helvetica Neue', Helvetica, Arial-Unicode, Arial, Sans-serif">Created by Musket</text><text x="0" y="52" fill="#000000" font-size="5px" font-weight="bold" font-family="'Helvetica Neue', Helvetica, Arial-Unicode, Arial, Sans-serif">from the Noun Project</text></svg>