<svg xmlns="http://www.w3.org/2000/svg" xmlns:xlink="http://www.w3.org/1999/xlink" xml:space="preserve" style="shape-rendering:geometricPrecision;text-rendering:geometricPrecision;image-rendering:optimizeQuality;" viewBox="0 0 45.2169 84.592125" x="0px" y="0px" fill-rule="evenodd" clip-rule="evenodd"><defs><style type="text/css">
   
    .fil0 {fill:#1F1A17}
   
  </style></defs><g><path class="fil0" d="M34.8968 42.8749l0 24.7987 -11.4849 0 0 -14.5919 -1.46617 0 0 14.5919 -11.4849 0 0 -24.7987 24.436 0zm-24.3952 -0.837635l0.821575 -7.28761 1.48013e-005 0 1.618 -14.3522c0.222271,-0.962513 0.985529,-1.54111 1.97565,-1.52638l2.2659 0 0.759987 0 9.09769 0 0.64766 0 2.75263 0c0.990118,-0.0147273 1.75338,0.56387 1.97565,1.52638l0.00845154 0.0750277 1.60955 14.2772 1.48013e-005 0 0.821575 7.28761 -24.3543 0zm7.44113 -23.7853l0 -1.34027 -1.11119 0c-1.60415,0 -2.91661,-1.31246 -2.91661,-2.91661l0 -7.83364c0,-1.60415 1.31246,-2.91661 2.91661,-2.91661l1.11119 0 0 -2.75128c0,-0.27147 0.192876,-0.493549 0.428631,-0.493549l8.24043 0c0.235755,0 0.428631,0.222079 0.428631,0.493549l0 2.75128 1.11121 0c1.60415,0 2.91661,1.31246 2.91661,2.91661l0 7.83364c0,1.60415 -1.31246,2.91661 -2.91661,2.91661l-1.11121 0 0 1.34027 -9.09769 0zm-7.37313 15.7054l-1.18939 4.23495c-0.172243,0.538323 -0.527548,0.884851 -1.04849,0.751891l-0.131332 -0.0347534 -0.277332 1.02308c0.920774,0.796887 1.48111,1.96215 1.61897,3.25806 0.139606,1.31231 -1.14563,4.58064 -3.45095,3.78731 -1.87196,-0.644197 1.35316,-5.28915 -0.974014,-5.53238 -0.920404,-0.148057 -1.355,0.867578 -1.43639,1.54706 -0.720423,6.01464 -3.89601,2.59279 -3.66915,0.198012 0.190803,-2.01406 1.52437,-3.70959 3.57648,-4.20126l0.33032 -1.21298 -0.33482 -0.0886005c-0.575815,-0.199743 -0.689577,-0.817949 -0.393611,-1.43614l4.54688 -11.7261c0.909258,-1.81757 2.04582,-3.71693 4.34877,-4.01498l-1.51593 13.4468zm22.7029 -13.4428c2.26099,0.31139 3.30264,2.20177 4.2077,4.01094l4.54688 11.7261c0.295967,0.618191 0.182204,1.2364 -0.393611,1.43614l-0.33482 0.0886005 0.33032 1.213c2.05211,0.491655 3.38568,2.18719 3.57648,4.20124 0.226859,2.39477 -2.94873,5.81663 -3.66915,-0.198012 -0.0813923,-0.679483 -0.515988,-1.69512 -1.43639,-1.54706 -2.32718,0.24323 0.89795,4.88819 -0.974014,5.53238 -2.30532,0.793334 -3.59056,-2.475 -3.45095,-3.78731 0.137859,-1.29591 0.698192,-2.46117 1.61897,-3.25806l-0.277332 -1.02308 -0.131332 0.0347534c-0.520946,0.13296 -0.876251,-0.213568 -1.04849,-0.751891l-0.992693 -3.53462 0.0225868 -0.00256062 -1.59414 -14.1405z"/></g><text x="0" y="82.6737" fill="#000000" font-size="5px" font-weight="bold" font-family="'Helvetica Neue', Helvetica, Arial-Unicode, Arial, Sans-serif">Created by Okan Benn</text><text x="0" y="87.6737" fill="#000000" font-size="5px" font-weight="bold" font-family="'Helvetica Neue', Helvetica, Arial-Unicode, Arial, Sans-serif">from the Noun Project</text></svg>