<?xml version="1.0" encoding="utf-8"?><!DOCTYPE svg PUBLIC "-//W3C//DTD SVG 1.1//EN" "http://www.w3.org/Graphics/SVG/1.1/DTD/svg11.dtd"><svg version="1.1" xmlns:sodipodi="http://sodipodi.sourceforge.net/DTD/sodipodi-0.dtd" xmlns:svg="http://www.w3.org/2000/svg" xmlns:dc="http://purl.org/dc/elements/1.1/" xmlns:inkscape="http://www.inkscape.org/namespaces/inkscape" xmlns:cc="http://creativecommons.org/ns#" xmlns:rdf="http://www.w3.org/1999/02/22-rdf-syntax-ns#" xmlns="http://www.w3.org/2000/svg" xmlns:xlink="http://www.w3.org/1999/xlink" x="0px" y="0px" viewBox="15.748 0 68.503 100" enable-background="new 15.748 0 68.503 100" xml:space="preserve"><path d="M66.973,0.008c-0.512,0.076-0.959,0.502-1.053,0.614
	c-0.045,0.055-0.147,0.11-0.176,0.175L16.099,55.091c-0.227,0.228-0.351,0.532-0.351,0.877c0,0.692,0.536,1.229,1.228,1.229h25.261
	l-10.525,41.05v0.263c-0.017,0.078-0.087,0.178-0.087,0.263c0,0.692,0.536,1.229,1.228,1.229c0.387,0,0.735-0.163,0.965-0.438
	L83.9,42.46c0.228-0.227,0.351-0.531,0.351-0.877c0-0.691-0.536-1.228-1.227-1.228H55.92L68.025,1.85
	c0.082-0.167,0.087-0.328,0.087-0.526c0-0.692-0.037-0.995-0.613-1.228C67.326,0.025,67.143-0.019,66.973,0.008L66.973,0.008z"></path></svg>