<svg xmlns="http://www.w3.org/2000/svg" xmlns:xlink="http://www.w3.org/1999/xlink" version="1.1" x="0px" y="0px" viewBox="0 0 100 125" enable-background="new 0 0 100 100" xml:space="preserve"><g><path d="M97.504,74.901L79.287,40.48l-1.486-2.804c0,0-1.989-4.335-4.413,0.334l-1.657,3.185l-2.669,5.155l12.58,28.387   c1.045,2.667,1.449,4.709,1.472,6.263h12.73C95.844,81,100.368,81.077,97.504,74.901z"/><path d="M29.467,76.314L19.065,49.958l-0.851-2.141c0,0-1.137-3.326-2.524,0.245l-0.946,2.453L4.466,77.047   c0,0-1.419,3.115,0.694,3.953l1.877-0.005l21.487-0.006C28.524,80.989,31.104,81.048,29.467,76.314z"/><path d="M40.239,32.099l9.005,8.034l6.435-10.239l1.46,0.276l-4.927-11.736l-1.826-4.329c0,0-2.433-6.703-5.405,0.511l-2.029,4.928   l-6.015,14.603L40.239,32.099z"/><path d="M74.521,71.575L59.476,35.742l-2.141-0.406l-7.318,11.66l-10.134-9.044L33.822,41.7L27.37,57.371l8.059,20.415   c0.52,1.509,0.61,2.528,0.496,3.214l36.567-0.005C72.492,80.995,78.029,81.111,74.521,71.575z"/></g><text x="0" y="115" fill="#000000" font-size="5px" font-weight="bold" font-family="'Helvetica Neue', Helvetica, Arial-Unicode, Arial, Sans-serif">Created by Cris Dobbins</text><text x="0" y="120" fill="#000000" font-size="5px" font-weight="bold" font-family="'Helvetica Neue', Helvetica, Arial-Unicode, Arial, Sans-serif">from the Noun Project</text></svg>