<svg xmlns="http://www.w3.org/2000/svg" data-name="Layer 1" viewBox="0 0 100 125" x="0px" y="0px"><title>Artboard 14</title><path d="M50,98A48,48,0,1,0,2,50,48,48,0,0,0,50,98Zm0-84A35.95,35.95,0,0,1,74,76.76V75.5A22.49,22.49,0,0,0,57.61,53.86a15,15,0,1,0-15.21,0A22.49,22.49,0,0,0,26,75.5v1.26A35.95,35.95,0,0,1,50,14Z"/><text x="0" y="115" fill="#000000" font-size="5px" font-weight="bold" font-family="'Helvetica Neue', Helvetica, Arial-Unicode, Arial, Sans-serif">Created by Gregor Cresnar</text><text x="0" y="120" fill="#000000" font-size="5px" font-weight="bold" font-family="'Helvetica Neue', Helvetica, Arial-Unicode, Arial, Sans-serif">from the Noun Project</text></svg>