<svg xmlns="http://www.w3.org/2000/svg" xmlns:xlink="http://www.w3.org/1999/xlink" version="1.1" x="0px" y="0px" viewBox="0 0 100 125" style="enable-background:new 0 0 100 100;" xml:space="preserve"><g><g><path d="M50,70.4c-11.3,0-20.5-9.2-20.5-20.4c0-11.3,9.2-20.4,20.5-20.4S70.5,38.7,70.5,50S61.3,70.4,50,70.4z"/></g><g><rect x="47" y="76.3" width="6" height="20.5"/></g><g><rect x="47" y="3.2" width="6" height="20.5"/></g><g><rect x="3.2" y="47" width="20.5" height="6"/></g><g><rect x="76.3" y="47" width="20.5" height="6"/></g><g><rect x="21.2" y="65.6" transform="matrix(-0.7071 -0.7071 0.7071 -0.7071 -12.3713 146.6226)" width="6" height="20.5"/></g><g><rect x="72.8" y="13.9" transform="matrix(-0.7071 -0.7071 0.7071 -0.7071 112.3801 94.7953)" width="6" height="20.5"/></g><g><rect x="13.9" y="21.2" transform="matrix(-0.7071 -0.7071 0.7071 -0.7071 24.0878 58.3383)" width="20.5" height="6"/></g><g><rect x="65.6" y="72.8" transform="matrix(-0.7071 -0.7071 0.7071 -0.7071 75.9136 183.0807)" width="20.5" height="6"/></g></g><text x="0" y="115" fill="#000000" font-size="5px" font-weight="bold" font-family="'Helvetica Neue', Helvetica, Arial-Unicode, Arial, Sans-serif">Created by Fantastic</text><text x="0" y="120" fill="#000000" font-size="5px" font-weight="bold" font-family="'Helvetica Neue', Helvetica, Arial-Unicode, Arial, Sans-serif">from the Noun Project</text></svg>