<svg xmlns="http://www.w3.org/2000/svg"><symbol id="blog" viewBox="0 0 24 24"><path d="M20.719 7.031l-1.828 1.828-3.75-3.75 1.828-1.828Q17.25 3 17.672 3t.703.281l2.344 2.344q.281.281.281.703t-.281.703zM3 17.25L14.063 6.187l3.75 3.75L6.75 21H3v-3.75z"/></symbol><symbol id="business" viewBox="0 0 24 24"><path d="M18 15v2.016h-2.016V15H18zm0-3.984v1.969h-2.016v-1.969H18zm2.016 7.968V9H12v2.016h2.016v1.969H12v2.016h2.016v2.016H12v1.969h8.016zm-10.032-12V5.015H8.015v1.969h1.969zm0 4.032V9H8.015v2.016h1.969zm0 3.984v-2.016H8.015V15h1.969zm0 3.984v-1.969H8.015v1.969h1.969zM6 6.984V5.015H3.984v1.969H6zm0 4.032V9H3.984v2.016H6zM6 15v-2.016H3.984V15H6zm0 3.984v-1.969H3.984v1.969H6zm6-12h9.984V21H2.015V3h9.984v3.984z"/></symbol><symbol id="client" viewBox="0 0 24 24"><path d="M21.984 17.016V9.985H18v7.031h3.984zm1.032-9q.422 0 .703.281T24 9v9.984q0 .422-.281.727t-.703.305h-6q-.422 0-.727-.305t-.305-.727V9q0-.422.305-.703t.727-.281h6zM3.984 6v11.016h10.031v3H-.001v-3h2.016V6q0-.797.586-1.406t1.383-.609h18v2.016h-18z"/></symbol><symbol id="cloud" viewBox="0 0 24 24"><path d="M19.359 10.031q1.922.141 3.281 1.57t1.359 3.398q0 2.063-1.477 3.539t-3.539 1.477H5.999q-2.484 0-4.242-1.758t-1.758-4.242q0-2.297 1.547-4.008t3.797-1.945q.984-1.828 2.766-2.953T12 3.984q2.719 0 4.781 1.711t2.578 4.336z"/></symbol><symbol id="code" viewBox="0 0 24 24"><path d="M14.578 16.594L19.219 12l-4.641-4.594L15.984 6l6 6-6 6zm-5.156 0L8.016 18l-6-6 6-6 1.406 1.406L4.781 12z"/></symbol><symbol id="codepen" viewBox="0 0 28 28"><path d="M3.375 18.266l9.422 6.281v-5.609l-5.219-3.484zm-.969-2.25L5.422 14l-3.016-2.016v4.031zm12.797 8.531l9.422-6.281-4.203-2.812-5.219 3.484v5.609zM14 16.844L18.25 14 14 11.156 9.75 14zm-6.422-4.297l5.219-3.484V3.454L3.375 9.735zm15 1.453l3.016 2.016v-4.031zm-2.156-1.453l4.203-2.812-9.422-6.281v5.609zM28 9.734v8.531q0 .641-.531 1l-12.797 8.531q-.328.203-.672.203t-.672-.203L.531 19.265q-.531-.359-.531-1V9.734q0-.641.531-1L13.328.203Q13.656 0 14 0t.672.203l12.797 8.531q.531.359.531 1z"/></symbol><symbol id="colorize" viewBox="0 0 24 24"><path d="M6.938 18.984l8.063-8.063-1.922-1.922-8.063 8.063zM20.719 5.625q.703.703 0 1.406l-3.141 3.141 1.922 1.922-1.406 1.406-1.406-1.406L7.735 21H3.001v-4.734l8.906-8.953-1.406-1.406 1.406-1.406 1.922 1.922 3.141-3.141q.281-.281.703-.281t.703.281z"/></symbol><symbol id="computer" viewBox="0 0 24 24"><path d="M3.984 6v9.984h16.031V6H3.984zm16.032 12H24v2.016H0V18h3.984q-.797 0-1.383-.609t-.586-1.406V6.001q0-.797.586-1.406t1.383-.609h16.031q.797 0 1.383.609t.586 1.406v9.984q0 .797-.586 1.406T20.015 18z"/></symbol><symbol id="email" viewBox="0 0 24 24"><path d="M20.016 8.016V6L12 11.016 3.984 6v2.016L12 12.985zm0-4.032q.797 0 1.383.609t.586 1.406v12q0 .797-.586 1.406t-1.383.609H3.985q-.797 0-1.383-.609t-.586-1.406v-12q0-.797.586-1.406t1.383-.609h16.031z"/></symbol><symbol id="flag" viewBox="0 0 24 24"><path d="M14.391 6h5.625v9.984h-7.031l-.375-1.969H6.985v6.984H5.016V3.983h9z"/></symbol><symbol id="flight" viewBox="0 0 24 24"><path d="M21 15.984L12.984 13.5v5.484l2.016 1.5v1.5L11.484 21l-3.469.984v-1.5l1.969-1.5V13.5l-7.969 2.484v-1.969l7.969-5.016V3.515q0-.609.445-1.055t1.055-.445 1.055.445.445 1.055v5.484L21 14.015v1.969z"/></symbol><symbol id="github" viewBox="0 0 24 28"><path d="M24 14q0 3.922-2.289 7.055t-5.914 4.336q-.422.078-.617-.109t-.195-.469v-3.297q0-1.516-.812-2.219.891-.094 1.602-.281t1.469-.609 1.266-1.039.828-1.641.32-2.352q0-1.891-1.234-3.219.578-1.422-.125-3.187-.438-.141-1.266.172t-1.437.688l-.594.375q-1.453-.406-3-.406t-3 .406q-.25-.172-.664-.422T7.033 7.18t-1.344-.211q-.688 1.766-.109 3.187-1.234 1.328-1.234 3.219 0 1.328.32 2.344t.82 1.641 1.258 1.047 1.469.609 1.602.281q-.625.562-.766 1.609-.328.156-.703.234t-.891.078-1.023-.336-.867-.977q-.297-.5-.758-.812t-.773-.375l-.313-.047q-.328 0-.453.07t-.078.18.141.219.203.187l.109.078q.344.156.68.594t.492.797l.156.359q.203.594.688.961t1.047.469 1.086.109.867-.055l.359-.063q0 .594.008 1.391t.008.844q0 .281-.203.469t-.625.109q-3.625-1.203-5.914-4.336T.003 13.998q0-3.266 1.609-6.023t4.367-4.367 6.023-1.609 6.023 1.609 4.367 4.367 1.609 6.023z"/></symbol><symbol id="linkedin" viewBox="0 0 24 28"><path d="M5.453 9.766V25.25H.297V9.766h5.156zm.328-4.782q.016 1.141-.789 1.906t-2.117.766h-.031q-1.281 0-2.063-.766T0 4.984Q0 3.828.805 3.07t2.102-.758 2.078.758.797 1.914zM24 16.375v8.875h-5.141v-8.281q0-1.641-.633-2.57t-1.977-.93q-.984 0-1.648.539t-.992 1.336q-.172.469-.172 1.266v8.641H8.296q.031-6.234.031-10.109t-.016-4.625l-.016-.75h5.141v2.25h-.031q.313-.5.641-.875t.883-.812 1.359-.68 1.789-.242q2.672 0 4.297 1.773t1.625 5.195z"/></symbol><symbol id="medium" viewBox="0 0 28 28"><path d="M9.328 6.578v18.328q0 .391-.195.664t-.57.273q-.266 0-.516-.125L.781 22.077q-.328-.156-.555-.523t-.227-.727V3.014q0-.313.156-.531t.453-.219q.219 0 .688.234l7.984 4q.047.047.047.078zm1 1.578l8.344 13.531-8.344-4.156V8.156zM28 8.437v16.469q0 .391-.219.633t-.594.242-.734-.203l-6.891-3.437zm-.047-1.874q0 .047-4.008 6.555t-4.695 7.617l-6.094-9.906 5.063-8.234q.266-.438.812-.438.219 0 .406.094L27.89 6.47q.063.031.063.094z"/></symbol><symbol id="pdf" viewBox="0 0 24 24"><path d="M14.016 11.484v-3H15v3h-.984zM3.984 6v14.016H18v1.969H3.984q-.797 0-1.383-.586t-.586-1.383V6h1.969zM9 9.516V8.485h.984v1.031H9zm11.484-1.032v-1.5h-3v6h1.5v-1.969h1.5v-1.5h-1.5V8.484h1.5zm-3.984 3v-3q0-.609-.422-1.055T15 6.984h-2.484v6H15q.656 0 1.078-.445t.422-1.055zm-5.016-1.968V8.485q0-.609-.445-1.055t-1.055-.445H7.5v6H9v-1.969h.984q.609 0 1.055-.445t.445-1.055zm8.532-7.5q.797 0 1.383.586t.586 1.383v12q0 .797-.586 1.406T20.016 18h-12q-.797 0-1.406-.609t-.609-1.406v-12q0-.797.609-1.383t1.406-.586h12z"/></symbol><symbol id="school" viewBox="0 0 24 24"><path d="M12 3l11.016 6v8.016H21v-6.938L12 15 .984 9zM5.016 13.172L12 17.016l6.984-3.844v4.031L12 21l-6.984-3.797v-4.031z"/></symbol><symbol id="settings" viewBox="0 0 24 24"><path d="M12 15.516q1.453 0 2.484-1.031t1.031-2.484-1.031-2.484T12 8.486 9.516 9.517t-1.031 2.484 1.031 2.484T12 15.516zm7.453-2.532l2.109 1.641q.328.234.094.656L19.64 18.75q-.188.328-.609.188l-2.484-.984q-.984.703-1.688.984l-.375 2.625q-.094.422-.469.422H9.984q-.375 0-.469-.422l-.375-2.625q-.891-.375-1.688-.984l-2.484.984q-.422.141-.609-.188l-2.016-3.469q-.234-.422.094-.656l2.109-1.641q-.047-.328-.047-.984t.047-.984L2.437 9.375q-.328-.234-.094-.656L4.359 5.25q.188-.328.609-.188l2.484.984q.984-.703 1.688-.984l.375-2.625q.094-.422.469-.422h4.031q.375 0 .469.422l.375 2.625q.891.375 1.688.984l2.484-.984q.422-.141.609.188l2.016 3.469q.234.422-.094.656l-2.109 1.641q.047.328.047.984t-.047.984z"/></symbol><symbol id="star" viewBox="0 0 24 24"><path d="M12 17.25L5.812 21l1.641-7.031-5.438-4.734 7.172-.609L12 2.017l2.813 6.609 7.172.609-5.438 4.734L18.188 21z"/></symbol><symbol id="twitter" viewBox="0 0 26 28"><path d="M25.312 6.375q-1.047 1.531-2.531 2.609.016.219.016.656 0 2.031-.594 4.055t-1.805 3.883-2.883 3.289-4.031 2.281T8.437 24q-4.234 0-7.75-2.266.547.063 1.219.063 3.516 0 6.266-2.156-1.641-.031-2.938-1.008t-1.781-2.492q.516.078.953.078.672 0 1.328-.172-1.75-.359-2.898-1.742t-1.148-3.211v-.063q1.062.594 2.281.641-1.031-.688-1.641-1.797t-.609-2.406q0-1.375.688-2.547Q4.298 7.25 7.009 8.649t5.805 1.555q-.125-.594-.125-1.156 0-2.094 1.477-3.57t3.57-1.477q2.188 0 3.687 1.594 1.703-.328 3.203-1.219-.578 1.797-2.219 2.781 1.453-.156 2.906-.781z"/></symbol></svg>