<svg xmlns="http://www.w3.org/2000/svg"><symbol id="blog" viewBox="0 0 24 24"><path d="M20.72 7.03l-1.83 1.83-3.75-3.75 1.83-1.83q.28-.28.702-.28t.703.28l2.344 2.345q.28.28.28.703t-.28.703zM3 17.25L14.063 6.187l3.75 3.75L6.75 21H3v-3.75z"/></symbol><symbol id="business" viewBox="0 0 24 24"><path d="M18 15v2.016h-2.016V15H18zm0-3.984v1.97h-2.016v-1.97H18zm2.016 7.968V9H12v2.016h2.016v1.97H12V15h2.016v2.017H12v1.97h8.016zm-10.032-12v-1.97h-1.97v1.97h1.97zm0 4.032V9h-1.97v2.016h1.97zm0 3.984v-2.016h-1.97V15h1.97zm0 3.984v-1.97h-1.97v1.97h1.97zM6 6.984v-1.97H3.984v1.97H6zm0 4.032V9H3.984v2.016H6zM6 15v-2.016H3.984V15H6zm0 3.984v-1.97H3.984v1.97H6zm6-12h9.984V21H2.014V3H12v3.984z"/></symbol><symbol id="client" viewBox="0 0 24 24"><path d="M21.984 17.016v-7.03H18v7.03h3.984zm1.032-9q.422 0 .703.28T24 9v9.984q0 .422-.28.727t-.704.306h-6q-.422 0-.727-.305t-.306-.726V9q0-.422.305-.703t.726-.28h6zM3.984 6v11.016h10.03v3H0v-3h2.015V6q0-.797.586-1.406t1.384-.61h18v2.017h-18z"/></symbol><symbol id="cloud" viewBox="0 0 24 24"><path d="M19.36 10.03q1.92.142 3.28 1.57T24 15q0 2.062-1.478 3.538t-3.54 1.477H6q-2.485 0-4.243-1.758T0 14.015q0-2.297 1.546-4.008t3.797-1.945Q6.327 6.234 8.11 5.11T12 3.983q2.72 0 4.78 1.71t2.58 4.337z"/></symbol><symbol id="code" viewBox="0 0 24 24"><path d="M14.578 16.594L19.218 12l-4.64-4.594L15.984 6l6 6-6 6zm-5.156 0L8.016 18l-6-6 6-6 1.406 1.406L4.782 12z"/></symbol><symbol id="codepen" viewBox="0 0 28 28"><path d="M3.375 18.266l9.422 6.28V18.94l-5.22-3.484zm-.97-2.25L5.423 14l-3.016-2.016v4.03zm12.798 8.53l9.422-6.28-4.203-2.812-5.22 3.484v5.61zM14 16.845L18.25 14 14 11.156 9.75 14zm-6.422-4.297l5.22-3.484v-5.61L3.374 9.736zm15 1.453l3.016 2.016v-4.03zm-2.156-1.453l4.203-2.812-9.422-6.28v5.608zM28 9.734v8.53q0 .642-.53 1L14.67 27.797Q14.344 28 14 28t-.672-.204L.53 19.266q-.53-.36-.53-1V9.733q0-.64.53-1L13.33.204Q13.656 0 14 0t.672.203l12.797 8.53q.53.36.53 1z"/></symbol><symbol id="colorize" viewBox="0 0 24 24"><path d="M6.938 18.984L15 10.92 13.08 9 5.015 17.06zm13.78-13.36q.704.704 0 1.407l-3.14 3.142 1.922 1.922-1.406 1.406-1.406-1.406L7.735 21H3v-4.734l8.907-8.953L10.5 5.907 11.908 4.5l1.922 1.923 3.14-3.14Q17.25 3 17.673 3t.703.282z"/></symbol><symbol id="computer" viewBox="0 0 24 24"><path d="M3.984 6v9.984h16.03V6H3.985zm16.032 12H24v2.016H0V18h3.984q-.797 0-1.383-.61t-.585-1.405V6q0-.796.586-1.405t1.384-.61h16.03q.798 0 1.384.61T21.984 6v9.985q0 .797-.586 1.406t-1.383.61z"/></symbol><symbol id="email" viewBox="0 0 24 24"><path d="M20.016 8.016V6L12 11.016 3.984 6v2.016L12 12.986zm0-4.032q.797 0 1.383.61t.585 1.405v12q0 .796-.586 1.405t-1.384.61H3.986q-.798 0-1.384-.61T2.016 18V6q0-.798.586-1.407t1.383-.61h16.03z"/></symbol><symbol id="flag" viewBox="0 0 24 24"><path d="M14.39 6h5.626v9.984h-7.03l-.376-1.97H6.985V21h-1.97V3.982h9z"/></symbol><symbol id="flight" viewBox="0 0 24 24"><path d="M21 15.984L12.984 13.5v5.484l2.016 1.5v1.5L11.484 21l-3.47.984v-1.5l1.97-1.5V13.5l-7.97 2.484v-1.97L9.985 9V3.514q0-.61.445-1.055t1.054-.445 1.055.445.444 1.055V9L21 14.014v1.97z"/></symbol><symbol id="github" viewBox="0 0 24 28"><path d="M24 14q0 3.922-2.29 7.055t-5.913 4.336q-.422.08-.617-.108t-.195-.47v-3.296q0-1.516-.812-2.22.89-.093 1.602-.28t1.47-.61 1.265-1.038.828-1.64.32-2.353q0-1.89-1.234-3.22.578-1.42-.125-3.186-.44-.142-1.267.17t-1.437.69l-.594.374q-1.453-.406-3-.406t-3 .406q-.25-.172-.664-.422T7.033 7.18 5.69 6.97Q5 8.734 5.58 10.155q-1.234 1.328-1.234 3.22 0 1.327.32 2.343t.82 1.64 1.258 1.047 1.47.61 1.6.28q-.624.562-.765 1.61-.33.155-.704.233t-.89.078-1.024-.336-.867-.977q-.297-.5-.758-.812t-.773-.375l-.313-.047q-.327 0-.452.07t-.078.18.14.22.204.187l.11.078q.343.156.68.594t.49.796l.157.36q.204.593.69.96t1.046.47 1.086.108.867-.055l.358-.064q0 .594.008 1.39t.008.845q0 .282-.203.47t-.624.11q-3.625-1.204-5.914-4.337t-2.29-7.055q0-3.266 1.61-6.023T5.98 3.608 12 1.998t6.023 1.61 4.367 4.367 1.61 6.023z"/></symbol><symbol id="linkedin" viewBox="0 0 24 28"><path d="M5.453 9.766V25.25H.297V9.766h5.156zm.328-4.782q.017 1.14-.788 1.906t-2.117.766h-.03q-1.282 0-2.064-.766T0 4.984Q0 3.828.805 3.07t2.102-.758 2.078.758.797 1.914zM24 16.374v8.876h-5.14v-8.28q0-1.642-.634-2.57t-1.977-.93q-.985 0-1.65.538t-.99 1.336q-.173.47-.173 1.266v8.64h-5.14q.03-6.233.03-10.108t-.016-4.625l-.015-.75h5.14v2.25h-.03q.313-.5.64-.875t.884-.812 1.358-.68 1.79-.242q2.67 0 4.296 1.773T24 16.377z"/></symbol><symbol id="medium" viewBox="0 0 28 28"><path d="M9.328 6.578v18.328q0 .39-.195.664t-.57.273q-.266 0-.516-.125L.78 22.078q-.327-.157-.554-.524T0 20.827V3.014q0-.313.155-.53t.453-.22q.22 0 .688.234l7.984 4q.047.047.047.078zm1 1.578l8.344 13.53-8.344-4.155V8.157zM28 8.436v16.47q0 .39-.22.633t-.593.24-.734-.202l-6.89-3.437zm-.047-1.873q0 .047-4.008 6.555t-4.695 7.617l-6.094-9.906 5.063-8.235q.265-.438.81-.438.22 0 .407.094l8.453 4.22q.063.03.063.094z"/></symbol><symbol id="pdf" viewBox="0 0 24 24"><path d="M14.016 11.484v-3H15v3h-.984zM3.984 6v14.016H18v1.97H3.984q-.797 0-1.383-.587t-.585-1.384V6h1.97zM9 9.516v-1.03h.984v1.03H9zm11.484-1.032v-1.5h-3v6h1.5v-1.97h1.5v-1.5h-1.5v-1.03h1.5zm-3.984 3v-3q0-.61-.422-1.055T15 6.983h-2.484v6H15q.656 0 1.078-.445t.422-1.056zm-5.016-1.968v-1.03q0-.61-.445-1.056t-1.056-.445H7.5v6H9v-1.97h.984q.61 0 1.055-.444t.444-1.054zm8.532-7.5q.797 0 1.383.586t.585 1.383v12q0 .797-.586 1.406t-1.384.61h-12q-.797 0-1.406-.61T6 15.986v-12q0-.797.61-1.383t1.406-.586h12z"/></symbol><symbol id="school" viewBox="0 0 24 24"><path d="M12 3l11.016 6v8.016H21v-6.938L12 15 .984 9zM5.016 13.172L12 17.016l6.984-3.844v4.03L12 21l-6.984-3.797v-4.03z"/></symbol><symbol id="settings" viewBox="0 0 24 24"><path d="M12 15.516q1.453 0 2.484-1.03T15.514 12t-1.03-2.483T12 8.487t-2.484 1.03T8.486 12t1.03 2.485T12 15.515zm7.453-2.532l2.11 1.64q.327.235.093.657l-2.016 3.47q-.188.328-.61.188l-2.483-.984q-.984.703-1.688.984l-.376 2.625q-.094.422-.47.422h-4.03q-.375 0-.47-.422l-.374-2.625q-.89-.375-1.688-.984l-2.484.984q-.422.14-.61-.188l-2.015-3.47q-.234-.42.094-.655l2.11-1.64q-.048-.33-.048-.985t.046-.984l-2.11-1.64q-.327-.235-.093-.657L4.36 5.25q.187-.328.608-.188l2.484.984q.984-.703 1.688-.984l.375-2.625q.094-.422.47-.422h4.03q.375 0 .47.422l.374 2.625q.89.375 1.687.984l2.484-.984q.423-.14.61.188l2.016 3.47q.234.42-.094.655l-2.11 1.64q.048.33.048.985t-.047.984z"/></symbol><symbol id="star" viewBox="0 0 24 24"><path d="M12 17.25L5.812 21l1.64-7.03-5.437-4.735 7.172-.61L12 2.018l2.813 6.61 7.172.608-5.438 4.734 1.64 7.03z"/></symbol><symbol id="twitter" viewBox="0 0 26 28"><path d="M25.312 6.375q-1.047 1.53-2.53 2.61.015.218.015.655 0 2.03-.594 4.055t-1.805 3.883-2.883 3.29-4.03 2.28T8.436 24q-4.234 0-7.75-2.266.547.063 1.22.063 3.515 0 6.265-2.156-1.64-.03-2.938-1.007t-1.78-2.492q.515.08.952.08.672 0 1.328-.173-1.75-.36-2.898-1.742t-1.148-3.21v-.064q1.062.595 2.28.642-1.03-.688-1.64-1.797t-.61-2.406q0-1.376.69-2.548 1.89 2.328 4.6 3.727t5.806 1.554q-.125-.594-.125-1.156 0-2.094 1.476-3.57T17.736 4q2.188 0 3.687 1.595 1.703-.328 3.203-1.22-.578 1.798-2.22 2.782 1.454-.156 2.907-.78z"/></symbol></svg>