<svg version="1" xmlns="http://www.w3.org/2000/svg" width="682.667" height="682.667" viewBox="0 0 512.000000 512.000000"><path d="M222.6 55c.8 1.4 2.5 4.3 3.9 6.5s3.5 5.9 4.7 8.2c1.2 2.4 2.6 4.3 3 4.3.4 0 .8.4.8.9s1.9 4.1 4.3 8c7.2 12.2 52 86.8 55.1 91.8 1.6 2.6 3.4 5.7 4 6.8.6 1.1 4.7 8 9.1 15.3 4.4 7.3 8.7 14.5 9.6 16 .9 1.5 4.8 8 8.8 14.5 3.9 6.5 7.1 12.2 7.1 12.7 0 .6.4 1 .8 1s1.8 1.9 3 4.2c1.3 2.4 2.8 5.2 3.5 6.3 31 51.4 45.7 76.7 45.7 78.8 0 5.4 3.2 5.2-84.3 5.2h-81l-3.3 5c-1.8 2.8-3.3 5.6-3.3 6.2-.1.7-.5 1.3-.9 1.3s-1.3 1.2-2 2.7c-.6 1.6-4.2 7.7-7.8 13.8-3.6 6-7.8 13-9.2 15.5-1.4 2.5-4.3 7.3-6.4 10.7-2.2 3.8-3.3 6.3-2.5 6.4 5.6.4 319.5.3 319.3-.1-.2-.3-11.2-18.5-24.5-40.5-13.4-22-24.7-40.7-25.2-41.5-.5-.8-4.3-7.1-8.4-13.8-4.1-6.8-7.5-12.6-7.5-12.8 0-.3-.5-1-1-1.7-.6-.7-3.2-4.8-5.8-9.2-2.5-4.4-5-8.2-5.4-8.3-.4-.2-.8-.7-.8-1.2 0-.4-2.9-5.5-6.5-11.4-3.6-5.8-6.5-10.8-6.5-11.1 0-.3-.5-1.1-1.1-1.8-.5-.7-5.7-8.9-11.3-18.2-5.7-9.4-17.2-28.3-25.7-42.2-8.5-13.9-16.3-26.8-17.4-28.6-6.8-11.6-10.8-18.2-21-34.7-6.3-10.2-11.9-19.4-12.5-20.5-.6-1.1-1.9-3.4-2.9-5-6.7-10.8-18.7-30.7-20.8-34.5-4.5-8-1.1-7.4-42.2-7.4l-36.9-.1 1.4 2.5z"/><path d="M201 74.7c-5.1 8.7-10.2 17.4-11.5 19.3-1.9 3-11.6 19.1-17.1 28.7-5.7 9.7-36 60.3-37.9 63.3-2.4 3.7-15.3 25.2-17.1 28.5-.6 1.1-2.8 4.9-5 8.5-2.1 3.6-4.3 7.3-4.9 8.3-.5.9-3.9 6.6-7.5 12.5-19.1 31.8-48 80.4-48 80.8 0 .3-.5 1-1.1 1.7-1.1 1.3-29.5 48.2-30.6 50.7-.4.8-2.5 4.4-4.6 8-2.2 3.6-4.8 7.8-5.7 9.5-1 1.6-2.6 4.4-3.5 6.1l-1.8 3 7.8 15c4.3 8.2 10.1 19.2 12.8 24.4 2.7 5.2 8.1 15.5 11.8 22.8l6.8 13.3 2.4-3.8c1.3-2.1 2.7-4.5 3-5.3.4-.8 1.7-3.1 2.8-5 9.2-15.2 15.9-27 15.9-27.9 0-.6.5-1.1 1-1.1.6 0 1-.4 1-.9s2-4.2 4.3-8.2c2.4-4.1 6.9-11.7 9.9-16.9 26.3-45.3 36.5-62.8 37.5-64.5.6-1.1 1.9-3.4 2.7-5 .8-1.7 2.7-4.8 4.1-7 1.3-2.2 2.8-4.7 3.2-5.5.3-.8 1.6-3.1 2.8-5 1.2-1.9 3.3-5.5 4.7-8 1.4-2.5 11.3-19.6 22-38s24.5-42.1 30.5-52.5c6-10.5 11.6-20.1 12.4-21.5 2.1-3.7 3.2-4.6 6-5.3 3.7-.9 2.9-2 24.5 31.8 3.2 4.9 8.5 13.3 11.9 18.5 3.3 5.2 9.7 15.1 14 22 4.4 6.9 8.2 12.7 8.6 13 .3.3.9 1.2 1.2 2 .8 1.6 1.5 2.8 15.4 24.4l9.3 14.3h37c20.3 0 37-.3 37-.8 0-.8-39.2-66.6-40.8-68.4-.5-.6-1.1-1.5-1.3-2-.4-1.1-6.6-11.6-10.2-17.6-2.2-3.6-20.3-33.8-24.2-40.3-1.1-1.8-6.5-10.8-12-20-5.5-9.1-10.4-17.4-11-18.4-3.6-6.5-10.1-16.8-10.7-17-.5-.2-.8-.8-.8-1.3 0-.8-25.9-45-29.9-50.9-.9-1.4-5-8.2-9.1-15.2s-7.8-12.7-8.1-12.8c-.3 0-4.8 7.1-9.9 15.7z"/><path d="M208.5 219c-1 2.2-2.1 4-2.5 4-.4 0-1.4 1.7-2.3 3.7-.9 2.1-3.9 7.6-6.7 12.2-2.7 4.6-5 8.8-5 9.2 0 .5-.4.9-1 .9-.5 0-.9.3-.8.7.1.5-1 2.7-2.5 5-1.5 2.4-2.7 4.4-2.7 4.7 0 .2-2.5 4.5-5.5 9.5-3 5.1-5.5 9.3-5.5 9.5 0 .2-1.8 3.4-4 7s-4 6.8-4 7.1c0 .3-.5 1.1-1.1 1.8-.5.7-9.6 16-20 34.2-10.5 18.1-19.4 33.7-20 34.5-4.8 7.9-20.9 36.3-20.9 37 0 .4-.4 1-.8 1.2-.4.1-2.5 3.4-4.6 7.3-2.1 3.8-5.8 10.2-8.2 14.1-2.4 3.9-4.4 7.6-4.4 8.2 0 .7-.4 1.2-1 1.2-.5 0-1 .4-1 .8 0 .5-3.8 7.4-8.3 15.3-4.6 7.9-11 18.9-14.2 24.4-3.1 5.5-6.1 10.4-6.6 10.9-.5.6-.9 1.2-.9 1.6 0 .6 412.7.7 413.3 0 .2-.3 9-17.5 19.5-38.2l19-37.7H338.7c-157.8 0-167.1-.1-168.9-1.8-3-2.7-1.8-5.8 8.7-24.5 10.5-18.4 11.6-20.5 16.5-29.3 1.8-3.3 4.1-7.4 5.1-9 1-1.7 3.2-5.7 5-9 1.8-3.3 4.3-7.7 5.5-9.7 1.3-2.1 2.4-3.9 2.4-4.1 0-.3 3.4-6.5 7.6-13.8 4.2-7.4 8.9-15.7 10.5-18.4 1.5-2.8 5-9 7.7-13.9l5-8.9-2.8-4.1c-1.5-2.2-4.4-6.8-6.5-10.1-2-3.3-4.6-7.2-5.6-8.7-1.1-1.5-1.9-2.9-1.9-3.2 0-.8-15.9-25.6-16.4-25.6-.2 0-1.1 1.8-2.1 4z"/></svg>
